<?xml version="1.0" encoding="UTF-8"?>
<svg id="b" data-name="レイヤー 2" xmlns="http://www.w3.org/2000/svg" xmlns:xlink="http://www.w3.org/1999/xlink" viewBox="0 0 482.2 138.48">
  <defs>
    <style>
      .e {
        fill: #6cc;
      }

      .e, .f, .g, .h, .i, .j {
        stroke-width: 0px;
      }

      .k {
        opacity: .33;
      }

      .f {
        fill: #b1e7da;
      }

      .g {
        fill: #3d3d3d;
      }

      .h {
        fill: none;
      }

      .i {
        fill: url(#d);
      }

      .j {
        fill: #fff;
      }
    </style>
    <pattern id="d" data-name="新規パターン" x="0" y="0" width="19" height="19" patternTransform="translate(-259.8 -574.82)" patternUnits="userSpaceOnUse" viewBox="0 0 19 19">
      <g>
        <rect class="h" width="19" height="19"/>
        <circle class="e" cx="9.5" cy="9.5" r="5.5"/>
      </g>
    </pattern>
  </defs>
  <g id="c" data-name="レイヤー 1">
    <g>
      <g>
        <g>
          <path class="j" d="M48.56,121.91c-3.28,0-6.77-.37-10.37-1.11-9.59-1.97-17.64-6.4-23.93-13.16-6.62-7.13-9.22-13.58-7.96-19.73.6-2.94,2.02-5.44,4.21-7.43,2.49-2.31,5.44-3.53,8.55-3.53.82,0,1.66.09,2.49.26,2.88.59,5.4,2.18,7.31,4.59l.16.21c.31.44.81,1.18,2.08,3.37,3.18,5.36,7.24,8.51,12.4,9.57,1.48.3,2.86.46,4.1.46,1.55,0,2.93-.24,4.08-.72,1.68-.68,2.45-1.61,2.81-3.36.39-1.91-.03-3.33-1.47-4.89-.62-.67-3.12-2.88-11.99-8.21-8.09-4.86-13.82-9.33-17.5-13.68-5.3-6.31-6.98-14.33-5.02-23.86,1.58-7.68,5.44-13.87,11.48-18.42,5.6-4.23,12.28-6.37,19.85-6.37,3,0,6.19.34,9.47,1.02,7.99,1.64,14.85,5.21,20.39,10.61,6.02,5.9,8.46,11.87,7.26,17.73-.68,3.31-2.48,6.13-5.19,8.15-2.4,1.78-5.02,2.69-7.81,2.69-.86,0-1.74-.09-2.61-.27-3.45-.71-6.41-3.01-8.78-6.85-2.31-3.76-5.1-5.93-8.53-6.63-1.38-.28-2.66-.43-3.8-.43-1.24,0-2.33.17-3.23.51-1.32.49-1.89,1.17-2.18,2.62-.19.94-.2,2.01,1.05,3.5.31.38,2.24,2.42,11.15,7.59,9.71,5.6,16.08,10.54,19.45,15.11,5.27,7.19,7,15.42,5.14,24.48-2.15,10.47-7.72,18.03-16.55,22.48-4.95,2.47-10.5,3.71-16.51,3.71Z"/>
          <path class="g" d="M49.85,21.89c2.61,0,5.36.3,8.26.89,6.88,1.41,12.68,4.42,17.41,9.03,4.48,4.39,6.34,8.47,5.56,12.23-.39,1.88-1.35,3.4-2.9,4.55-1.34,1-2.75,1.5-4.23,1.5-.46,0-.93-.05-1.4-.15-1.78-.37-3.41-1.74-4.88-4.13-3.19-5.19-7.33-8.31-12.43-9.35-1.79-.37-3.46-.55-5.01-.55-1.96,0-3.73.29-5.32.88-3.27,1.21-5.26,3.55-5.98,7.04-.64,3.1.14,5.95,2.33,8.57,1.63,1.97,5.88,4.94,12.74,8.93,8.91,5.14,14.79,9.63,17.64,13.49,4.23,5.77,5.6,12.34,4.08,19.71-1.77,8.62-6.23,14.73-13.37,18.32-4.11,2.05-8.71,3.07-13.81,3.07-2.89,0-5.95-.33-9.16-.99-8.38-1.72-15.29-5.51-20.75-11.37-5.15-5.55-7.31-10.36-6.48-14.44.35-1.68,1.14-3.09,2.4-4.22,1.39-1.3,2.89-1.95,4.49-1.95.42,0,.85.04,1.28.13,1.5.31,2.77,1.12,3.81,2.44.31.43.9,1.39,1.76,2.87,4.08,6.88,9.54,11.03,16.38,12.43,1.89.39,3.66.58,5.31.58,2.36,0,4.49-.39,6.38-1.18,3.49-1.41,5.62-3.97,6.38-7.69.78-3.8-.2-7.19-2.93-10.16-1.85-1.97-6.29-5.07-13.32-9.29-7.45-4.47-12.78-8.61-16-12.41-4.06-4.84-5.31-11.1-3.73-18.78,1.28-6.23,4.35-11.17,9.21-14.83,4.56-3.45,9.98-5.17,16.24-5.17M49.85,9.89h0c-8.91,0-16.81,2.56-23.48,7.59-7.23,5.43-11.86,12.84-13.74,21.99-2.92,14.22,1.81,23.57,6.29,28.91.77.91,1.6,1.81,2.52,2.72-.79-.1-1.59-.16-2.38-.16-4.64,0-9,1.77-12.61,5.11-3.1,2.83-5.18,6.5-6.03,10.65-1.66,8.07,1.52,16.49,9.44,25.02,7.17,7.7,16.29,12.73,27.13,14.96,3.99.82,7.88,1.24,11.57,1.24,6.95,0,13.39-1.46,19.16-4.33h.02s.02-.02.02-.02c10.4-5.24,17.23-14.44,19.73-26.63,2.19-10.64.06-20.75-6.16-29.22-1.41-1.9-3.17-3.8-5.33-5.73,3.33-.37,6.53-1.65,9.36-3.76,3.92-2.92,6.5-6.98,7.48-11.76,1.13-5.5.5-13.99-8.92-23.22-6.4-6.24-14.26-10.34-23.39-12.21-3.68-.76-7.27-1.14-10.68-1.14h0ZM47.23,89.39c-.75-.03-1.59-.14-2.51-.33-2.34-.48-5.42-1.68-8.42-6.71.54.33,1.09.67,1.66,1.01,5.06,3.04,7.82,4.94,9.28,6.02h0Z"/>
        </g>
        <g>
          <path class="j" d="M144.8,120.61c-3,0-7.3-1.03-10.8-5.92l-22.26-30.4-2.12,2.3v21.66c0,2.37-.58,4.53-1.72,6.41-2.33,3.81-6.26,5.9-11.09,5.9-4.01,0-7.47-1.43-10-4.13l-.1-.11c-1.94-2.17-2.96-4.96-2.96-8.07V34.84c0-2.53.69-4.82,2.05-6.8,2.39-3.51,6.27-5.45,10.92-5.45,5.1,0,8.22,2.31,9.95,4.24,1.94,2.18,2.96,4.95,2.96,8.01v15.71l37.66-40.1c2.63-2.92,5.98-4.46,9.69-4.46,3.15,0,6.06,1.14,8.43,3.3,2.81,2.5,4.34,6,4.34,10.06,0,3.48-1.27,6.64-3.67,9.13l-36.26,37.22,25.21,32.61c2.08,2.64,3.14,5.65,3.14,8.92,0,4.16-1.73,7.73-5,10.33-2.44,1.98-5.34,3.04-8.36,3.04Z"/>
          <path class="g" d="M156.97,12c1.66,0,3.12.58,4.38,1.73,1.59,1.41,2.39,3.29,2.39,5.64,0,1.94-.66,3.59-1.99,4.97l-39.88,40.93,28.39,36.73c1.26,1.6,1.89,3.35,1.89,5.25,0,2.31-.91,4.19-2.74,5.64-1.43,1.15-2.97,1.73-4.62,1.73-2.32,0-4.29-1.13-5.92-3.41l-26.61-36.34-8.65,9.38v24c0,1.27-.28,2.36-.85,3.29-1.23,2.01-3.22,3.02-5.97,3.02-2.36,0-4.23-.74-5.62-2.23-.96-1.08-1.44-2.44-1.44-4.08V34.84c0-1.3.33-2.44.99-3.41,1.29-1.9,3.28-2.85,5.97-2.85,2.32,0,4.14.75,5.47,2.23.96,1.08,1.44,2.42,1.44,4.02v30.87l48.08-51.2c1.49-1.67,3.25-2.51,5.27-2.51M156.97,0c-5.37,0-10.37,2.27-14.11,6.39l-27.25,29.01v-.56c0-4.56-1.55-8.7-4.48-12-3.6-4.04-8.72-6.26-14.43-6.26-6.69,0-12.33,2.87-15.88,8.09-2.01,2.92-3.08,6.45-3.08,10.16v73.4c0,4.6,1.55,8.77,4.48,12.06l.1.11.1.11c3.69,3.95,8.67,6.04,14.38,6.04,6.9,0,12.81-3.19,16.21-8.76,1.73-2.85,2.6-6.06,2.6-9.55v-8.49l13.54,18.5c3.88,5.39,9.43,8.36,15.63,8.36,4.39,0,8.58-1.51,12.14-4.37,4.66-3.73,7.23-9.05,7.23-15,0-4.56-1.53-8.92-4.42-12.62l-21.99-28.45,32.6-33.46.03-.03.03-.03c3.5-3.63,5.34-8.23,5.34-13.29,0-5.71-2.25-10.88-6.35-14.55-3.48-3.15-7.77-4.82-12.41-4.82h0Z"/>
        </g>
        <g>
          <path class="j" d="M174.09,114.5c-9.95,0-15.9-6.4-15.9-17.11v-56.46c0-10.71,5.94-17.11,15.9-17.11h39.93c2.8,0,5.34,1.07,7.37,3.09l.13.13c1.58,1.68,3.47,4.68,3.47,9.42,0,6.09-2.91,9.28-5.35,10.88-1.58,1.07-3.55,1.65-5.63,1.65h-29.86v7.74h18.32c2.76,0,5.25,1.05,7.19,3.04,2.32,2.38,3.49,5.59,3.49,9.54,0,5.75-2.6,8.88-4.8,10.51-1.66,1.25-3.69,1.91-5.87,1.91h-18.32v7.25h42.13c3.13,0,5.97,1.34,8,3.79,1.98,2.44,2.97,5.44,2.97,8.97,0,6.28-2.91,9.5-5.34,11.1-1.71,1.09-3.63,1.65-5.63,1.65h-52.21Z"/>
          <path class="g" d="M214.02,29.82c1.19,0,2.24.45,3.13,1.34,1.23,1.3,1.84,3.07,1.84,5.3,0,2.76-.88,4.71-2.64,5.86-.66.45-1.44.67-2.34.67h-34.02c-1.23,0-1.84.73-1.84,2.18v17.56h24.32c1.13,0,2.09.41,2.88,1.23,1.19,1.23,1.79,3.01,1.79,5.36,0,2.64-.8,4.54-2.39,5.69-.63.48-1.39.73-2.29.73h-24.32v17.19c0,1.38.61,2.07,1.84,2.07h46.29c1.36,0,2.49.54,3.38,1.62,1.06,1.3,1.59,3.01,1.59,5.14,0,2.9-.88,4.93-2.64,6.08-.7.45-1.48.67-2.34.67h-52.21c-6.6,0-9.9-3.7-9.9-11.11v-56.46c0-7.4,3.3-11.11,9.9-11.11h39.93M214.02,17.82h-39.93c-13.3,0-21.9,9.07-21.9,23.11v56.46c0,14.04,8.59,23.11,21.9,23.11h52.21c3.14,0,6.19-.89,8.81-2.57l.06-.04.06-.04c3.01-1.97,8.05-6.69,8.05-16.12,0-6.15-2.33-10.31-4.28-12.71l-.04-.04-.04-.04c-3.19-3.84-7.67-5.96-12.62-5.96h-12.45c2.53-2.52,5.31-6.85,5.31-13.67s-2.82-11.29-5.19-13.72c-.2-.21-.41-.41-.62-.6h.66c3.25,0,6.36-.93,8.98-2.68,3.01-2,7.99-6.68,7.99-15.85,0-6.7-2.77-11.05-5.1-13.53l-.13-.14-.13-.13c-3.13-3.12-7.25-4.84-11.61-4.84h0Z"/>
        </g>
        <g>
          <path class="j" d="M259.33,132.48c-5.14,0-9.21-2.25-11.47-6.33-1.01-1.77-1.54-3.88-1.54-6.2V49.66h-15.38c-2.18,0-4.22-.62-5.92-1.8-2.34-1.61-5.16-4.86-5.16-11.06,0-4.96,1.94-8.04,3.58-9.76,1.97-2.1,4.56-3.21,7.49-3.21h56.84c2.41,0,4.67.78,6.52,2.25l.16.13c2,1.71,4.39,4.93,4.39,10.53s-2.15,8.47-3.96,10.14c-1.91,1.81-4.38,2.78-7.12,2.78h-15.38v70.29c0,3.53-1.25,6.6-3.62,8.89-2.41,2.37-5.69,3.64-9.44,3.64Z"/>
          <path class="g" d="M287.77,29.82c1.06,0,1.99.32,2.78.95,1.52,1.3,2.29,3.29,2.29,5.97s-.68,4.48-2.04,5.75c-.83.78-1.84,1.17-3.03,1.17h-21.38v76.29c0,1.9-.6,3.42-1.79,4.58-1.33,1.3-3.08,1.95-5.27,1.95-2.95,0-5.02-1.08-6.22-3.24-.53-.93-.8-2.03-.8-3.29V43.66h-21.38c-.96,0-1.79-.24-2.49-.73-1.72-1.19-2.59-3.24-2.59-6.14,0-2.42.65-4.3,1.94-5.64.83-.89,1.87-1.34,3.13-1.34h56.84M287.77,17.82h-56.84c-4.55,0-8.75,1.81-11.84,5.09-2.4,2.52-5.23,6.96-5.23,13.89,0,9.24,4.84,13.98,7.74,16,2.7,1.88,5.93,2.87,9.33,2.87h9.38v64.29c0,3.35.79,6.43,2.34,9.18,3.32,5.95,9.4,9.35,16.67,9.35,5.34,0,10.05-1.85,13.64-5.35,3.5-3.39,5.42-8.07,5.42-13.18V55.66h9.38c4.21,0,8.19-1.56,11.23-4.41,2.67-2.49,5.85-7.03,5.85-14.52,0-7.89-3.53-12.56-6.49-15.09l-.16-.14-.17-.13c-2.93-2.32-6.47-3.55-10.25-3.55h0Z"/>
        </g>
        <g>
          <path class="j" d="M330.06,121.22c-13.35,0-24.18-5.28-32.13-15.7-6.72-8.77-10.13-20.17-10.13-33.9,0-14.88,4.03-27.13,11.99-36.4,7.53-8.8,17.49-13.3,29.59-13.37.25-.02.56-.03.93-.03,4.81,0,10.66,2.49,12.66,9.48,1.49,5.23-.03,8.76-1.56,10.8-3.53,4.68-9.66,5.04-11.46,5.04h-.07c-3.49,0-6.32,1.28-8.9,3.99-4.19,4.38-6.31,11.25-6.31,20.43,0,6.7,1.31,12.35,3.91,16.79,2.77,4.73,6.3,7,11.07,7.12.58-.08,1.45-.16,2.47-.16,8.18,0,13.47,5.02,13.47,12.79,0,8.6-7.78,13.11-15.47,13.11h-.04Z"/>
          <path class="g" d="M330.3,27.83c1.58,0,5.56.48,6.89,5.13,2.3,8.04-6.59,8.19-7.25,8.19-.03,0-.04,0-.04,0-5.14,0-9.56,1.95-13.28,5.86-5.3,5.55-7.96,13.73-7.96,24.56,0,7.81,1.57,14.42,4.72,19.82,3.95,6.74,9.5,10.1,16.66,10.1,0,0,.86-.16,2.06-.16,2.8,0,7.47.89,7.47,6.79,0,7.06-9.21,7.11-9.47,7.11h0c-11.47,0-20.61-4.45-27.4-13.34-5.94-7.74-8.9-17.82-8.9-30.25,0-13.47,3.51-24.3,10.54-32.49,6.43-7.52,14.87-11.27,25.31-11.27,0,0,.25-.03.65-.03M330.3,15.83c-.43,0-.81.01-1.15.03-13.65.13-25.38,5.47-33.94,15.47-8.9,10.37-13.42,23.93-13.42,40.29,0,15.08,3.83,27.71,11.38,37.56,9.01,11.79,21.78,18.04,36.92,18.04,10.68,0,21.48-6.56,21.48-19.11,0-11.06-8.01-18.79-19.47-18.79-1.06,0-2,.07-2.74.15-1.81-.1-3.62-.73-5.63-4.15-2.04-3.49-3.08-8.13-3.08-13.75,0-7.58,1.56-13.06,4.63-16.27,1.69-1.78,3.05-2.15,4.57-2.16h.08c2.5,0,11.05-.54,16.25-7.43,1.93-2.56,4.83-8.05,2.54-16.06-2.4-8.4-9.63-13.83-18.43-13.83h0Z"/>
        </g>
        <g>
          <path class="j" d="M369.56,120.55c-4.96,0-8.96-2.17-11.27-6.1-1.09-1.8-1.65-3.88-1.65-6.21v-25.65h-28.8l-.38-.05c-4.26-.55-10.59-4.36-10.59-12.6,0-8.66,6.71-12.2,10.26-12.86l.55-.1h28.97v-22.13c0-2.53.69-4.82,2.05-6.8,2.31-3.49,6.19-5.45,10.86-5.45,5.1,0,8.23,2.31,9.95,4.24,1.94,2.18,2.96,4.95,2.96,8.01v73.4c0,3.03-.98,5.77-2.84,7.93-1.67,1.98-4.81,4.38-10.07,4.38Z"/>
          <path class="g" d="M369.56,28.59c2.32,0,4.14.75,5.47,2.23.96,1.08,1.44,2.42,1.44,4.02v73.4c0,1.6-.46,2.94-1.39,4.02-1.29,1.53-3.13,2.29-5.52,2.29-2.85,0-4.89-1.06-6.12-3.18-.53-.86-.8-1.9-.8-3.13v-31.65h-34.41s-5.36-.69-5.36-6.65,5.36-6.97,5.36-6.97h34.41v-28.13c0-1.3.33-2.44,1-3.41,1.26-1.9,3.23-2.85,5.92-2.85M369.56,16.59c-6.72,0-12.35,2.89-15.87,8.14-1.99,2.94-3.05,6.44-3.05,10.11v16.13h-23.52l-1.09.2c-7.3,1.36-15.15,7.82-15.15,18.76s7.96,17.54,15.83,18.56l.76.1h23.18v19.65c0,3.42.84,6.54,2.49,9.28,3.39,5.74,9.36,9.03,16.42,9.03,5.88,0,11.07-2.31,14.64-6.49,2.79-3.26,4.27-7.35,4.27-11.82V34.84c0-4.56-1.55-8.71-4.48-12-3.6-4.04-8.72-6.26-14.44-6.26h0Z"/>
        </g>
        <g>
          <path class="j" d="M423.16,120.55c-4.99,0-9-2.21-11.31-6.23-1.07-1.82-1.61-3.9-1.61-6.19v-28.36l-23.73-35.04c-1.75-2.64-2.62-5.43-2.62-8.33,0-3.78,1.49-7.23,4.32-9.95,2.64-2.5,5.83-3.8,9.29-3.8,4.37,0,8.18,2.15,10.74,6.07l15.34,23.69,28.39-37.61c2.59-3.83,6.38-5.93,10.71-5.93,2.81,0,5.53.96,7.86,2.77,3.67,2.77,5.65,6.65,5.65,11.16,0,2.83-.87,5.58-2.59,8.17l-.11.17-37.37,48.83v28.17c0,3.35-1.16,6.31-3.36,8.55-2.58,2.55-5.88,3.87-9.61,3.87Z"/>
          <path class="g" d="M462.69,14.87c1.49,0,2.88.5,4.18,1.51,2.22,1.68,3.33,3.82,3.33,6.42,0,1.64-.53,3.26-1.59,4.86l-38.48,50.28v30.2c0,1.79-.55,3.24-1.64,4.35-1.39,1.38-3.17,2.07-5.32,2.07-2.85,0-4.89-1.08-6.12-3.24-.53-.89-.8-1.95-.8-3.18v-30.2l-24.77-36.56c-1.06-1.6-1.59-3.26-1.59-4.97,0-2.16.83-4.04,2.49-5.64,1.49-1.41,3.2-2.12,5.12-2.12,2.35,0,4.26,1.12,5.72,3.35l19.99,30.87,33.66-44.59c1.49-2.27,3.43-3.41,5.82-3.41M462.69,2.87c-6.34,0-11.85,2.99-15.59,8.43l-23.14,30.65-10.67-16.48v-.02s-.03-.02-.03-.02c-3.7-5.66-9.3-8.78-15.76-8.78-5.02,0-9.64,1.87-13.38,5.41l-.04.04-.04.04c-4.03,3.89-6.15,8.82-6.15,14.27,0,4.11,1.21,8.01,3.59,11.6l.03.05.03.05,22.7,33.51v26.52c0,3.36.81,6.46,2.42,9.2,3.37,5.86,9.38,9.22,16.5,9.22,5.34,0,10.1-1.91,13.76-5.54l.07-.06.06-.07c3.32-3.38,5.07-7.79,5.07-12.75v-26.13l36.01-47.05.25-.32.22-.34c2.38-3.59,3.59-7.46,3.59-11.49,0-6.35-2.85-12.01-8.04-15.95-3.38-2.6-7.35-3.98-11.47-3.98h0Z"/>
        </g>
      </g>
      <g>
        <g>
          <path class="j" d="M48.56,120.91c-3.22,0-6.64-.37-10.16-1.09-9.38-1.93-17.25-6.25-23.4-12.86-6.38-6.88-8.91-13.04-7.71-18.85.56-2.74,1.89-5.07,3.94-6.93,2.25-2.1,4.98-3.24,7.84-3.24.76,0,1.53.08,2.29.24,2.64.54,4.97,2.01,6.73,4.24l.13.18c.28.39.77,1.12,2.02,3.29,3.33,5.62,7.61,8.92,13.06,10.04,1.55.32,3,.48,4.31.48,1.69,0,3.19-.27,4.46-.8,1.98-.8,2.98-2.01,3.41-4.08.45-2.21-.08-3.98-1.72-5.77-.83-.88-3.56-3.19-12.21-8.39-8-4.8-13.64-9.21-17.25-13.47-5.09-6.06-6.7-13.79-4.81-23.01,1.53-7.43,5.26-13.42,11.11-17.82,5.42-4.09,11.9-6.17,19.25-6.17,2.93,0,6.05.33,9.27,1,7.8,1.6,14.49,5.08,19.89,10.34,5.76,5.65,8.11,11.3,6.97,16.82-.63,3.07-2.29,5.68-4.81,7.55-2.22,1.65-4.65,2.49-7.21,2.49-.8,0-1.61-.08-2.41-.25-3.17-.65-5.91-2.8-8.13-6.39-2.46-4.01-5.47-6.32-9.18-7.08-1.45-.3-2.8-.45-4-.45-1.36,0-2.56.19-3.58.57-1.66.61-2.44,1.55-2.82,3.36-.33,1.6.05,2.9,1.27,4.35.58.7,2.82,2.83,11.41,7.81,9.59,5.53,15.86,10.38,19.15,14.84,5.1,6.95,6.76,14.91,4.96,23.68-2.09,10.15-7.48,17.48-16.02,21.79-4.81,2.39-10.2,3.6-16.06,3.6Z"/>
          <path class="f" d="M49.85,21.89c2.61,0,5.36.3,8.26.89,6.88,1.41,12.68,4.42,17.41,9.03,4.48,4.39,6.34,8.47,5.56,12.23-.39,1.88-1.35,3.4-2.9,4.55-1.34,1-2.75,1.5-4.23,1.5-.46,0-.93-.05-1.4-.15-1.78-.37-3.41-1.74-4.88-4.13-3.19-5.19-7.33-8.31-12.43-9.35-1.79-.37-3.46-.55-5.01-.55-1.96,0-3.73.29-5.32.88-3.27,1.21-5.26,3.55-5.98,7.04-.64,3.1.14,5.95,2.33,8.57,1.63,1.97,5.88,4.94,12.74,8.93,8.91,5.14,14.79,9.63,17.64,13.49,4.23,5.77,5.6,12.34,4.08,19.71-1.77,8.62-6.23,14.73-13.37,18.32-4.11,2.05-8.71,3.07-13.81,3.07-2.89,0-5.95-.33-9.16-.99-8.38-1.72-15.29-5.51-20.75-11.37-5.15-5.55-7.31-10.36-6.48-14.44.35-1.68,1.14-3.09,2.4-4.22,1.39-1.3,2.89-1.95,4.49-1.95.42,0,.85.04,1.28.13,1.5.31,2.77,1.12,3.81,2.44.31.43.9,1.39,1.76,2.87,4.08,6.88,9.54,11.03,16.38,12.43,1.89.39,3.66.58,5.31.58,2.36,0,4.49-.39,6.38-1.18,3.49-1.41,5.62-3.97,6.38-7.69.78-3.8-.2-7.19-2.93-10.16-1.85-1.97-6.29-5.07-13.32-9.29-7.45-4.47-12.78-8.61-16-12.41-4.06-4.84-5.31-11.1-3.73-18.78,1.28-6.23,4.35-11.17,9.21-14.83,4.56-3.45,9.98-5.17,16.24-5.17M49.85,11.89h0c-8.46,0-15.96,2.42-22.27,7.19-6.83,5.14-11.2,12.14-12.98,20.8-2.76,13.44,1.67,22.22,5.87,27.22,3.99,4.72,10.04,9.47,18.52,14.56,8.79,5.28,10.86,7.24,11.15,7.54.59.65.56.81.45,1.33-.03.15-.06.25-.08.32-.05.03-.13.07-.24.11l-.05.02-.05.02c-.66.27-1.52.41-2.54.41s-2.08-.13-3.3-.38c-2.54-.52-6.31-1.89-9.77-7.7-1.33-2.3-1.88-3.11-2.26-3.65l-.13-.18-.14-.18c-2.5-3.16-5.83-5.25-9.64-6.03-1.09-.22-2.2-.34-3.3-.34-4.13,0-8.02,1.59-11.26,4.59-2.78,2.54-4.66,5.85-5.42,9.57-1.52,7.4,1.49,15.23,8.94,23.26,6.88,7.39,15.65,12.22,26.06,14.36,3.86.79,7.62,1.19,11.17,1.19,6.63,0,12.78-1.39,18.27-4.12,9.88-4.97,16.33-13.7,18.71-25.26,2.07-10.07.06-19.63-5.82-27.64-2.25-3.04-5.49-6.1-9.92-9.33.26.07.51.13.75.18,1.13.23,2.28.35,3.41.35,3.62,0,7.14-1.2,10.2-3.48,3.52-2.62,5.84-6.27,6.72-10.56,1.03-5.01.41-12.79-8.36-21.38-6.12-5.96-13.65-9.88-22.4-11.68-3.55-.73-7.01-1.1-10.28-1.1h0ZM48.99,46.01c.36-.07.79-.1,1.26-.1.87,0,1.88.12,3,.35,1.46.3,3.67,1.12,5.92,4.8.69,1.11,1.41,2.09,2.14,2.95-.74-.44-1.5-.89-2.29-1.34-7.55-4.38-9.63-6.25-10.03-6.65h0Z"/>
        </g>
        <g>
          <path class="j" d="M144.8,119.61c-2.76,0-6.74-.95-9.99-5.5l-22.98-31.39-3.21,3.48v22.05c0,2.19-.53,4.17-1.57,5.89-2.14,3.5-5.77,5.42-10.24,5.42-3.73,0-6.94-1.32-9.27-3.82l-.08-.09c-1.77-1.99-2.71-4.55-2.71-7.4V34.84c0-2.33.63-4.42,1.87-6.23,1.55-2.28,4.58-5.02,10.09-5.02,3.74,0,6.92,1.35,9.2,3.91,1.77,1.99,2.71,4.53,2.71,7.35v18.24l39.4-41.95c2.43-2.7,5.53-4.13,8.96-4.13,2.9,0,5.58,1.05,7.75,3.04,2.61,2.31,4.01,5.55,4.01,9.33,0,3.22-1.17,6.13-3.39,8.44l-36.87,37.84,25.74,33.29c1.94,2.46,2.94,5.27,2.94,8.31,0,3.84-1.6,7.14-4.62,9.55-2.3,1.86-4.91,2.82-7.74,2.82Z"/>
          <path class="f" d="M156.97,12c1.66,0,3.12.58,4.38,1.73,1.59,1.41,2.39,3.29,2.39,5.64,0,1.94-.66,3.59-1.99,4.97l-39.88,40.93,28.39,36.73c1.26,1.6,1.89,3.35,1.89,5.25,0,2.31-.91,4.19-2.74,5.64-1.43,1.15-2.97,1.73-4.62,1.73-2.32,0-4.29-1.13-5.92-3.41l-26.61-36.34-8.65,9.38v24c0,1.27-.28,2.36-.85,3.29-1.23,2.01-3.22,3.02-5.97,3.02-2.36,0-4.23-.74-5.62-2.23-.96-1.08-1.44-2.44-1.44-4.08V34.84c0-1.3.33-2.44.99-3.41,1.29-1.9,3.28-2.85,5.97-2.85,2.32,0,4.14.75,5.47,2.23.96,1.08,1.44,2.42,1.44,4.02v30.87l48.08-51.2c1.49-1.67,3.25-2.51,5.27-2.51M156.97,2c-4.8,0-9.28,2.04-12.64,5.75l-30.72,32.71v-5.61c0-4.06-1.37-7.75-3.97-10.67-2.28-2.55-6.36-5.59-12.94-5.59-6.01,0-11.06,2.56-14.23,7.22-1.78,2.59-2.73,5.73-2.73,9.04v73.4c0,4.1,1.37,7.81,3.97,10.73l.08.09.08.09c3.31,3.53,7.77,5.4,12.92,5.4,6.28,0,11.43-2.77,14.5-7.8,1.54-2.53,2.31-5.39,2.31-8.5v-14.61l17.16,23.44c3.5,4.86,8.47,7.54,14.02,7.54,3.93,0,7.69-1.36,10.89-3.93,4.18-3.34,6.48-8.11,6.48-13.44,0-4.11-1.38-8.05-4-11.39l-23.06-29.83,33.81-34.71.02-.02.02-.02c3.13-3.25,4.78-7.37,4.78-11.9,0-5.21-1.97-9.73-5.69-13.06-3.1-2.82-6.93-4.31-11.07-4.31h0Z"/>
        </g>
        <g>
          <path class="j" d="M174.09,113.5c-9.33,0-14.9-6.02-14.9-16.11v-56.46c0-10.08,5.57-16.11,14.9-16.11h39.93c2.52,0,4.83.97,6.66,2.8l.11.11c2.12,2.26,3.2,5.19,3.2,8.73,0,5.65-2.66,8.58-4.89,10.04-1.44.97-3.17,1.49-5.08,1.49h-30.86v9.74h19.32c2.49,0,4.72.95,6.47,2.74,2.13,2.19,3.21,5.17,3.21,8.85,0,5.34-2.38,8.22-4.4,9.7-1.49,1.12-3.31,1.71-5.27,1.71h-19.32v9.25h43.13c2.83,0,5.4,1.22,7.23,3.43,1.83,2.25,2.74,5.04,2.74,8.33,0,5.83-2.66,8.8-4.89,10.26-1.56,1-3.25,1.49-5.08,1.49h-52.21Z"/>
          <path class="f" d="M214.02,29.82c1.19,0,2.24.45,3.13,1.34,1.23,1.3,1.84,3.07,1.84,5.3,0,2.76-.88,4.71-2.64,5.86-.66.45-1.44.67-2.34.67h-34.02c-1.23,0-1.84.73-1.84,2.18v17.56h24.32c1.13,0,2.09.41,2.88,1.23,1.19,1.23,1.79,3.01,1.79,5.36,0,2.64-.8,4.54-2.39,5.69-.63.48-1.39.73-2.29.73h-24.32v17.19c0,1.38.61,2.07,1.84,2.07h46.29c1.36,0,2.49.54,3.38,1.62,1.06,1.3,1.59,3.01,1.59,5.14,0,2.9-.88,4.93-2.64,6.08-.7.45-1.48.67-2.34.67h-52.21c-6.6,0-9.9-3.7-9.9-11.11v-56.46c0-7.4,3.3-11.11,9.9-11.11h39.93M214.02,19.82h-39.93c-7.8,0-12.4,3.33-14.89,6.12-3.32,3.73-5.01,8.77-5.01,14.98v56.46c0,6.21,1.68,11.25,5.01,14.98,2.49,2.79,7.09,6.12,14.89,6.12h52.21c2.76,0,5.43-.78,7.73-2.25l.05-.03.05-.03c2.67-1.75,7.15-5.96,7.15-14.44,0-5.57-2.09-9.3-3.83-11.45l-.03-.04-.03-.04c-2.8-3.38-6.73-5.23-11.08-5.23h-19.25c1.32-.45,2.57-1.11,3.7-1.96,2.45-1.81,6.41-5.94,6.41-13.71,0-6.26-2.51-10.16-4.62-12.33-2.03-2.08-4.57-3.46-7.35-4h8.83c2.85,0,5.57-.81,7.87-2.34,2.68-1.77,7.1-5.95,7.1-14.19,0-6.04-2.48-9.95-4.56-12.16l-.11-.12-.11-.11c-2.75-2.75-6.37-4.26-10.19-4.26h0Z"/>
        </g>
        <g>
          <path class="j" d="M259.33,131.48c-4.76,0-8.52-2.07-10.59-5.82-.93-1.63-1.42-3.57-1.42-5.71V48.66h-16.38c-2,0-3.8-.55-5.34-1.62-2.15-1.48-4.73-4.47-4.73-10.24,0-3.75,1.12-6.81,3.34-9.11,1.72-1.85,4.07-2.87,6.73-2.87h56.84c2.18,0,4.22.7,5.9,2.03l.14.11c1.84,1.58,4.04,4.55,4.04,9.77,0,4-1.22,7.17-3.64,9.41-1.73,1.63-3.96,2.51-6.44,2.51h-16.38v71.29c0,3.25-1.15,6.08-3.32,8.17-2.23,2.19-5.26,3.36-8.75,3.36Z"/>
          <path class="f" d="M287.77,29.82c1.06,0,1.99.32,2.78.95,1.52,1.3,2.29,3.29,2.29,5.97s-.68,4.48-2.04,5.75c-.83.78-1.84,1.17-3.03,1.17h-21.38v76.29c0,1.9-.6,3.42-1.79,4.58-1.33,1.3-3.08,1.95-5.27,1.95-2.95,0-5.02-1.08-6.22-3.24-.53-.93-.8-2.03-.8-3.29V43.66h-21.38c-.96,0-1.79-.24-2.49-.73-1.73-1.19-2.59-3.24-2.59-6.14,0-2.42.65-4.3,1.94-5.64.83-.89,1.87-1.34,3.13-1.34h56.84M287.77,19.82h-56.84c-4,0-7.68,1.58-10.39,4.46-2.15,2.26-4.68,6.24-4.68,12.51,0,8.36,4.33,12.59,6.91,14.37,2.33,1.62,5.17,2.5,8.17,2.5h11.38v66.29c0,3,.7,5.75,2.08,8.19,2.96,5.3,8.4,8.34,14.94,8.34,4.81,0,9.04-1.65,12.25-4.79,3.15-3.06,4.82-7.12,4.82-11.74V53.66h11.38c3.76,0,7.17-1.34,9.87-3.88,2.38-2.22,5.2-6.29,5.2-13.05,0-7.13-3.15-11.32-5.79-13.57l-.14-.12-.14-.11c-2.57-2.04-5.68-3.12-9.01-3.12h0Z"/>
        </g>
        <g>
          <path class="j" d="M330.07,120.22c-13.03,0-23.59-5.15-31.35-15.31-6.59-8.59-9.93-19.79-9.93-33.29,0-14.64,3.95-26.66,11.75-35.74,7.34-8.58,17.06-12.96,28.88-13.02.23-.02.53-.03.88-.03,4.45,0,9.85,2.3,11.7,8.75,1.38,4.83,0,8.06-1.4,9.92-3.25,4.31-8.98,4.64-10.66,4.64h-.12c-3.66,0-6.82,1.41-9.57,4.31-4.37,4.57-6.58,11.67-6.58,21.12,0,6.88,1.36,12.7,4.04,17.29,2.98,5.09,6.79,7.52,11.99,7.62.54-.07,1.39-.16,2.42-.16,7.57,0,12.47,4.63,12.47,11.79,0,8.32-7.5,12.11-14.47,12.11h-.03Z"/>
          <path class="f" d="M330.3,27.83c1.58,0,5.56.48,6.89,5.13,2.3,8.04-6.59,8.19-7.25,8.19-.03,0-.04,0-.04,0-5.14,0-9.56,1.95-13.28,5.86-5.3,5.55-7.96,13.73-7.96,24.56,0,7.81,1.57,14.42,4.72,19.82,3.95,6.74,9.5,10.1,16.66,10.1,0,0,.86-.16,2.06-.16,2.8,0,7.47.89,7.47,6.79,0,7.06-9.21,7.11-9.47,7.11h0c-11.47,0-20.61-4.45-27.4-13.34-5.94-7.74-8.9-17.82-8.9-30.25,0-13.47,3.51-24.3,10.54-32.49,6.43-7.52,14.87-11.27,25.31-11.27,0,0,.25-.03.65-.03M330.3,17.83c-.4,0-.77.01-1.07.03-13.26.1-24.19,5.07-32.49,14.77-8.59,10-12.94,23.12-12.94,38.99,0,14.63,3.69,26.85,10.97,36.34,8.62,11.28,20.84,17.26,35.34,17.26,9.68,0,19.48-5.88,19.48-17.11,0-9.88-7.18-16.79-17.47-16.79-1.05,0-1.96.07-2.66.15-2.43-.1-4.98-.96-7.44-5.15-2.22-3.81-3.35-8.78-3.35-14.76,0-8.12,1.74-14.05,5.18-17.65,1.84-1.94,3.64-2.76,6.01-2.77h.08c2.26,0,10.01-.48,14.65-6.63,1.71-2.26,4.27-7.13,2.22-14.31-2.15-7.52-8.63-12.38-16.5-12.38h0Z"/>
        </g>
        <g>
          <path class="j" d="M369.56,119.55c-4.59,0-8.29-1.99-10.41-5.62-1-1.64-1.5-3.55-1.5-5.69v-26.65h-29.73l-.32-.04c-3.91-.5-9.72-4.01-9.72-11.61,0-8,6.17-11.27,9.44-11.88l.46-.08h29.88v-23.13c0-2.33.63-4.42,1.87-6.23,1.49-2.25,4.49-5.02,10.04-5.02,4.73,0,7.62,2.12,9.2,3.91,1.77,1.99,2.71,4.53,2.71,7.35v73.4c0,2.79-.9,5.3-2.6,7.28-1.54,1.82-4.44,4.03-9.31,4.03Z"/>
          <path class="f" d="M369.56,28.59c2.32,0,4.14.75,5.47,2.23.96,1.08,1.44,2.42,1.44,4.02v73.4c0,1.6-.46,2.94-1.39,4.02-1.29,1.53-3.13,2.29-5.52,2.29-2.85,0-4.89-1.06-6.12-3.18-.53-.86-.8-1.9-.8-3.13v-31.65h-34.41s-5.36-.69-5.36-6.65,5.36-6.97,5.36-6.97h34.41v-28.13c0-1.3.33-2.44,1-3.41,1.26-1.9,3.23-2.85,5.92-2.85M369.56,18.59c-6.03,0-11.07,2.58-14.21,7.26-1.77,2.61-2.7,5.72-2.7,9v18.13h-25.34l-.91.17c-6.51,1.22-13.52,6.99-13.52,16.8s7.09,15.67,14.09,16.57l.63.08h25.05v21.65c0,3.05.74,5.83,2.21,8.26,3.02,5.12,8.37,8.05,14.7,8.05,5.29,0,9.95-2.06,13.13-5.8,2.48-2.89,3.78-6.53,3.78-10.51V34.84c0-4.06-1.37-7.75-3.97-10.67-2.28-2.55-6.36-5.59-12.94-5.59h0Z"/>
        </g>
        <g>
          <path class="j" d="M423.16,119.55c-4.64,0-8.35-2.05-10.46-5.77-.94-1.59-1.45-3.52-1.45-5.65v-28.67l-23.91-35.29c-1.64-2.47-2.45-5.07-2.45-7.77,0-3.51,1.39-6.7,4.01-9.23,2.44-2.32,5.4-3.52,8.59-3.52,4.02,0,7.54,1.99,9.9,5.61l16.12,24.89,29.27-38.77c3.06-4.55,7.07-5.51,9.9-5.51,2.62,0,5.06.86,7.24,2.56,3.42,2.58,5.26,6.18,5.26,10.37,0,2.63-.82,5.19-2.42,7.62l-.09.14-37.56,49.07v28.5c0,3.09-1.06,5.8-3.07,7.85-2.38,2.35-5.43,3.57-8.89,3.57Z"/>
          <path class="f" d="M462.69,14.87c1.49,0,2.88.5,4.18,1.51,2.22,1.68,3.33,3.82,3.33,6.42,0,1.64-.53,3.26-1.59,4.86l-38.48,50.28v30.2c0,1.79-.55,3.24-1.64,4.35-1.39,1.38-3.17,2.07-5.32,2.07-2.85,0-4.89-1.08-6.12-3.24-.53-.89-.8-1.95-.8-3.18v-30.2l-24.77-36.56c-1.06-1.6-1.59-3.26-1.59-4.97,0-2.16.83-4.04,2.49-5.64,1.49-1.41,3.2-2.12,5.12-2.12,2.35,0,4.26,1.12,5.72,3.35l19.99,30.87,33.66-44.59c1.49-2.27,3.43-3.41,5.82-3.41M462.69,4.87c-5.67,0-10.61,2.7-13.96,7.6l-24.89,32.97-12.22-18.88c-3.34-5.12-8.35-7.91-14.11-7.91-4.5,0-8.65,1.68-12,4.87l-.03.03-.03.03c-3.63,3.5-5.54,7.94-5.54,12.83,0,3.71,1.1,7.24,3.26,10.5l.03.04.03.04,23.04,34.02v27.13c0,3.01.72,5.77,2.15,8.2,3,5.22,8.38,8.22,14.77,8.22,4.8,0,9.08-1.71,12.35-4.96l.05-.05.05-.05c2.94-3,4.5-6.93,4.5-11.35v-26.81l36.43-47.59.21-.27.19-.28c2.16-3.26,3.26-6.75,3.26-10.38,0-5.71-2.58-10.81-7.26-14.36-3.03-2.33-6.57-3.57-10.25-3.57h0Z"/>
        </g>
      </g>
      <g class="k">
        <g>
          <path class="i" d="M58.12,22.78c6.88,1.41,12.68,4.42,17.41,9.03,4.48,4.39,6.34,8.47,5.56,12.23-.39,1.88-1.35,3.4-2.9,4.55-1.76,1.31-3.64,1.76-5.63,1.35-1.78-.37-3.41-1.74-4.88-4.13-3.19-5.19-7.33-8.31-12.43-9.35-4.05-.83-7.49-.72-10.33.33-3.27,1.21-5.26,3.55-5.98,7.04-.64,3.1.14,5.95,2.33,8.57,1.63,1.97,5.88,4.94,12.74,8.93,8.91,5.14,14.79,9.63,17.64,13.49,4.23,5.77,5.6,12.34,4.08,19.71-1.77,8.62-6.23,14.73-13.37,18.32-6.44,3.21-14.1,3.9-22.97,2.08-8.38-1.72-15.29-5.51-20.75-11.37-5.15-5.55-7.31-10.36-6.48-14.44.35-1.68,1.14-3.09,2.4-4.22,1.76-1.64,3.68-2.25,5.78-1.82,1.5.31,2.77,1.12,3.81,2.44.31.43.9,1.39,1.76,2.87,4.08,6.88,9.54,11.03,16.38,12.43,4.57.94,8.47.74,11.69-.6,3.49-1.41,5.62-3.97,6.38-7.69s-.2-7.19-2.93-10.16c-1.85-1.97-6.29-5.07-13.32-9.29-7.45-4.47-12.78-8.61-16-12.41-4.06-4.84-5.31-11.1-3.73-18.78,1.28-6.23,4.35-11.17,9.21-14.83,6.46-4.88,14.63-6.3,24.51-4.27Z"/>
          <path class="i" d="M49.85,21.89c2.61,0,5.36.3,8.26.89,6.88,1.41,12.68,4.42,17.41,9.03,4.48,4.39,6.34,8.47,5.56,12.23-.39,1.88-1.35,3.4-2.9,4.55-1.34,1-2.75,1.5-4.23,1.5-.46,0-.93-.05-1.4-.15-1.78-.37-3.41-1.74-4.88-4.13-3.19-5.19-7.33-8.31-12.43-9.35-1.79-.37-3.46-.55-5.01-.55-1.96,0-3.73.29-5.32.88-3.27,1.21-5.26,3.55-5.98,7.04-.64,3.1.14,5.95,2.33,8.57,1.63,1.97,5.88,4.94,12.74,8.93,8.91,5.14,14.79,9.63,17.64,13.49,4.23,5.77,5.6,12.34,4.08,19.71-1.77,8.62-6.23,14.73-13.37,18.32-4.11,2.05-8.71,3.07-13.81,3.07-2.89,0-5.95-.33-9.16-.99-8.38-1.72-15.29-5.51-20.75-11.37-5.15-5.55-7.31-10.36-6.48-14.44.35-1.68,1.14-3.09,2.4-4.22,1.39-1.3,2.89-1.95,4.49-1.95.42,0,.85.04,1.28.13,1.5.31,2.77,1.12,3.81,2.44.31.43.9,1.39,1.76,2.87,4.08,6.88,9.54,11.03,16.38,12.43,1.89.39,3.66.58,5.31.58,2.36,0,4.49-.39,6.38-1.18,3.49-1.41,5.62-3.97,6.38-7.69.78-3.8-.2-7.19-2.93-10.16-1.85-1.97-6.29-5.07-13.32-9.29-7.45-4.47-12.78-8.61-16-12.41-4.06-4.84-5.31-11.1-3.73-18.78,1.28-6.23,4.35-11.17,9.21-14.83,4.56-3.45,9.98-5.17,16.24-5.17M49.85,11.89h0c-8.46,0-15.96,2.42-22.27,7.19-6.83,5.14-11.2,12.14-12.98,20.8-2.76,13.44,1.67,22.22,5.87,27.22,3.99,4.72,10.04,9.47,18.52,14.56,8.79,5.28,10.86,7.24,11.15,7.54.59.65.56.81.45,1.33-.03.15-.06.25-.08.32-.05.03-.13.07-.24.11l-.05.02-.05.02c-.66.27-1.52.41-2.54.41s-2.08-.13-3.3-.38c-2.54-.52-6.31-1.89-9.77-7.7-1.33-2.3-1.88-3.11-2.26-3.65l-.13-.18-.14-.18c-2.5-3.16-5.83-5.25-9.64-6.03-1.09-.22-2.2-.34-3.3-.34-4.13,0-8.02,1.59-11.26,4.59-2.78,2.54-4.66,5.85-5.42,9.57-1.52,7.4,1.49,15.23,8.94,23.26,6.88,7.39,15.65,12.22,26.06,14.36,3.86.79,7.62,1.19,11.17,1.19,6.63,0,12.78-1.39,18.27-4.12,9.88-4.97,16.33-13.7,18.71-25.26,2.07-10.07.06-19.63-5.82-27.64-2.25-3.04-5.49-6.1-9.92-9.33.26.07.51.13.75.18,1.13.23,2.28.35,3.41.35,3.62,0,7.14-1.2,10.2-3.48,3.52-2.62,5.84-6.27,6.72-10.56,1.03-5.01.41-12.79-8.36-21.38-6.12-5.96-13.65-9.88-22.4-11.68-3.55-.73-7.01-1.1-10.28-1.1h0ZM48.99,46.01c.36-.07.79-.1,1.26-.1.87,0,1.88.12,3,.35,1.46.3,3.67,1.12,5.92,4.8.69,1.11,1.41,2.09,2.14,2.95-.74-.44-1.5-.89-2.29-1.34-7.55-4.38-9.63-6.25-10.03-6.65h0Z"/>
        </g>
        <g>
          <path class="i" d="M103.62,84.24v24c0,1.27-.28,2.36-.85,3.29-1.23,2.01-3.22,3.02-5.97,3.02-2.36,0-4.23-.74-5.62-2.23-.96-1.08-1.44-2.44-1.44-4.08V34.84c0-1.3.33-2.44.99-3.41,1.29-1.9,3.28-2.85,5.97-2.85,2.32,0,4.14.75,5.47,2.23.96,1.08,1.44,2.42,1.44,4.02v30.87l48.08-51.2c1.49-1.67,3.25-2.51,5.27-2.51,1.66,0,3.12.58,4.38,1.73,1.59,1.41,2.39,3.29,2.39,5.64,0,1.94-.66,3.59-1.99,4.97l-39.88,40.93,28.39,36.73c1.26,1.6,1.89,3.35,1.89,5.25,0,2.31-.91,4.19-2.74,5.64-1.43,1.15-2.97,1.73-4.62,1.73-2.32,0-4.29-1.13-5.92-3.41l-26.61-36.34-8.65,9.38Z"/>
          <path class="i" d="M156.97,12c1.66,0,3.12.58,4.38,1.73,1.59,1.41,2.39,3.29,2.39,5.64,0,1.94-.66,3.59-1.99,4.97l-39.88,40.93,28.39,36.73c1.26,1.6,1.89,3.35,1.89,5.25,0,2.31-.91,4.19-2.74,5.64-1.43,1.15-2.97,1.73-4.62,1.73-2.32,0-4.29-1.13-5.92-3.41l-26.61-36.34-8.65,9.38v24c0,1.27-.28,2.36-.85,3.29-1.23,2.01-3.22,3.02-5.97,3.02-2.36,0-4.23-.74-5.62-2.23-.96-1.08-1.44-2.44-1.44-4.08V34.84c0-1.3.33-2.44.99-3.41,1.29-1.9,3.28-2.85,5.97-2.85,2.32,0,4.14.75,5.47,2.23.96,1.08,1.44,2.42,1.44,4.02v30.87l48.08-51.2c1.49-1.67,3.25-2.51,5.27-2.51M156.97,2c-4.8,0-9.28,2.04-12.64,5.75l-30.72,32.71v-5.61c0-4.06-1.37-7.75-3.97-10.67-2.28-2.55-6.36-5.59-12.94-5.59-6.01,0-11.06,2.56-14.23,7.22-1.78,2.59-2.73,5.73-2.73,9.04v73.4c0,4.1,1.37,7.81,3.97,10.73l.08.09.08.09c3.31,3.53,7.77,5.4,12.92,5.4,6.28,0,11.43-2.77,14.5-7.8,1.54-2.53,2.31-5.39,2.31-8.5v-14.61l17.16,23.44c3.5,4.86,8.47,7.54,14.02,7.54,3.93,0,7.69-1.36,10.89-3.93,4.18-3.34,6.48-8.11,6.48-13.44,0-4.11-1.38-8.05-4-11.39l-23.06-29.83,33.81-34.71.02-.02.02-.02c3.13-3.25,4.78-7.37,4.78-11.9,0-5.21-1.97-9.73-5.69-13.06-3.1-2.82-6.93-4.31-11.07-4.31h0Z"/>
        </g>
        <g>
          <path class="i" d="M178.17,75.74v17.19c0,1.38.61,2.07,1.84,2.07h46.29c1.36,0,2.49.54,3.38,1.62,1.06,1.3,1.59,3.01,1.59,5.14,0,2.9-.88,4.93-2.64,6.08-.7.45-1.48.67-2.34.67h-52.21c-6.6,0-9.9-3.7-9.9-11.11v-56.46c0-7.4,3.3-11.11,9.9-11.11h39.93c1.19,0,2.24.45,3.13,1.34,1.23,1.3,1.84,3.07,1.84,5.3,0,2.76-.88,4.71-2.64,5.86-.66.45-1.44.67-2.34.67h-34.02c-1.23,0-1.84.73-1.84,2.18v17.56h24.32c1.13,0,2.09.41,2.88,1.23,1.19,1.23,1.79,3.01,1.79,5.36,0,2.64-.8,4.54-2.39,5.69-.63.48-1.39.73-2.29.73h-24.32Z"/>
          <path class="i" d="M214.02,29.82c1.19,0,2.24.45,3.13,1.34,1.23,1.3,1.84,3.07,1.84,5.3,0,2.76-.88,4.71-2.64,5.86-.66.45-1.44.67-2.34.67h-34.02c-1.23,0-1.84.73-1.84,2.18v17.56h24.32c1.13,0,2.09.41,2.88,1.23,1.19,1.23,1.79,3.01,1.79,5.36,0,2.64-.8,4.54-2.39,5.69-.63.48-1.39.73-2.29.73h-24.32v17.19c0,1.38.61,2.07,1.84,2.07h46.29c1.36,0,2.49.54,3.38,1.62,1.06,1.3,1.59,3.01,1.59,5.14,0,2.9-.88,4.93-2.64,6.08-.7.45-1.48.67-2.34.67h-52.21c-6.6,0-9.9-3.7-9.9-11.11v-56.46c0-7.4,3.3-11.11,9.9-11.11h39.93M214.02,19.82h-39.93c-7.8,0-12.4,3.33-14.89,6.12-3.32,3.73-5.01,8.77-5.01,14.98v56.46c0,6.21,1.68,11.25,5.01,14.98,2.49,2.79,7.09,6.12,14.89,6.12h52.21c2.76,0,5.43-.78,7.73-2.25l.05-.03.05-.03c2.67-1.75,7.15-5.96,7.15-14.44,0-5.57-2.09-9.3-3.83-11.45l-.03-.04-.03-.04c-2.8-3.38-6.73-5.23-11.08-5.23h-19.25c1.32-.45,2.57-1.11,3.7-1.96,2.45-1.81,6.41-5.94,6.41-13.71,0-6.26-2.51-10.16-4.62-12.33-2.03-2.08-4.57-3.46-7.35-4h8.83c2.85,0,5.57-.81,7.87-2.34,2.68-1.77,7.1-5.95,7.1-14.19,0-6.04-2.48-9.95-4.56-12.16l-.11-.12-.11-.11c-2.75-2.75-6.37-4.26-10.19-4.26h0Z"/>
        </g>
        <g>
          <path class="i" d="M252.31,43.66h-21.38c-.96,0-1.79-.24-2.49-.73-1.72-1.19-2.59-3.24-2.59-6.14,0-2.42.65-4.3,1.94-5.64.83-.89,1.87-1.34,3.13-1.34h56.84c1.06,0,1.99.32,2.78.95,1.52,1.3,2.29,3.29,2.29,5.97s-.68,4.48-2.04,5.75c-.83.78-1.84,1.17-3.03,1.17h-21.38v76.29c0,1.9-.6,3.42-1.79,4.58-1.33,1.3-3.08,1.95-5.27,1.95-2.95,0-5.02-1.08-6.22-3.24-.53-.93-.8-2.03-.8-3.29V43.66Z"/>
          <path class="i" d="M287.77,29.82c1.06,0,1.99.32,2.78.95,1.52,1.3,2.29,3.29,2.29,5.97s-.68,4.48-2.04,5.75c-.83.78-1.84,1.17-3.03,1.17h-21.38v76.29c0,1.9-.6,3.42-1.79,4.58-1.33,1.3-3.08,1.95-5.27,1.95-2.95,0-5.02-1.08-6.22-3.24-.53-.93-.8-2.03-.8-3.29V43.66h-21.38c-.96,0-1.79-.24-2.49-.73-1.73-1.19-2.59-3.24-2.59-6.14,0-2.42.65-4.3,1.94-5.64.83-.89,1.87-1.34,3.13-1.34h56.84M287.77,19.82h-56.84c-4,0-7.68,1.58-10.39,4.46-2.15,2.26-4.68,6.24-4.68,12.51,0,8.36,4.33,12.59,6.91,14.37,2.33,1.62,5.17,2.5,8.17,2.5h11.38v66.29c0,3,.7,5.75,2.08,8.19,2.96,5.3,8.4,8.34,14.94,8.34,4.81,0,9.04-1.65,12.25-4.79,3.15-3.06,4.82-7.12,4.82-11.74V53.66h11.38c3.76,0,7.17-1.34,9.87-3.88,2.38-2.22,5.2-6.29,5.2-13.05,0-7.13-3.15-11.32-5.79-13.57l-.14-.12-.14-.11c-2.57-2.04-5.68-3.12-9.01-3.12h0Z"/>
        </g>
        <g>
          <path class="i" d="M330.09,115.22c-11.47,0-20.61-4.45-27.4-13.34-5.94-7.74-8.9-17.82-8.9-30.25,0-13.47,3.51-24.3,10.54-32.49,6.43-7.52,14.87-11.27,25.31-11.27,0,0,5.87-.75,7.54,5.09,2.39,8.35-7.29,8.19-7.29,8.19-5.14,0-9.56,1.95-13.28,5.86-5.3,5.55-7.96,13.73-7.96,24.56,0,7.81,1.57,14.42,4.72,19.82,3.95,6.74,9.5,10.1,16.66,10.1,0,0,9.53-1.81,9.53,6.63,0,7.16-9.48,7.11-9.48,7.11Z"/>
          <path class="i" d="M330.3,27.83c1.58,0,5.56.48,6.89,5.13,2.3,8.04-6.59,8.19-7.25,8.19-.03,0-.04,0-.04,0-5.14,0-9.56,1.95-13.28,5.86-5.3,5.55-7.96,13.73-7.96,24.56,0,7.81,1.57,14.42,4.72,19.82,3.95,6.74,9.5,10.1,16.66,10.1,0,0,.86-.16,2.06-.16,2.8,0,7.47.89,7.47,6.79,0,7.06-9.21,7.11-9.47,7.11h0c-11.47,0-20.61-4.45-27.4-13.34-5.94-7.74-8.9-17.82-8.9-30.25,0-13.47,3.51-24.3,10.54-32.49,6.43-7.52,14.87-11.27,25.31-11.27,0,0,.25-.03.65-.03M330.3,17.83c-.4,0-.77.01-1.07.03-13.26.1-24.19,5.07-32.49,14.77-8.59,10-12.94,23.12-12.94,38.99,0,14.63,3.69,26.85,10.97,36.34,8.62,11.28,20.84,17.26,35.34,17.26,9.68,0,19.48-5.88,19.48-17.11,0-9.88-7.18-16.79-17.47-16.79-1.05,0-1.96.07-2.66.15-2.43-.1-4.98-.96-7.44-5.15-2.22-3.81-3.35-8.78-3.35-14.76,0-8.12,1.74-14.05,5.18-17.65,1.84-1.94,3.64-2.76,6.01-2.77h.08c2.26,0,10.01-.48,14.65-6.63,1.71-2.26,4.27-7.13,2.22-14.31-2.15-7.52-8.63-12.38-16.5-12.38h0Z"/>
        </g>
        <g>
          <path class="i" d="M328.23,62.97h34.41v-28.13c0-1.3.33-2.44,1-3.41,1.26-1.9,3.23-2.85,5.92-2.85,2.32,0,4.14.75,5.47,2.23.96,1.08,1.44,2.42,1.44,4.02v73.4c0,1.6-.46,2.94-1.39,4.02-1.29,1.53-3.13,2.29-5.52,2.29-2.85,0-4.89-1.06-6.12-3.18-.53-.86-.8-1.9-.8-3.13v-31.65h-34.41s-5.36-.69-5.36-6.65,5.36-6.97,5.36-6.97Z"/>
          <path class="i" d="M369.56,28.59c2.32,0,4.14.75,5.47,2.23.96,1.08,1.44,2.42,1.44,4.02v73.4c0,1.6-.46,2.94-1.39,4.02-1.29,1.53-3.13,2.29-5.52,2.29-2.85,0-4.89-1.06-6.12-3.18-.53-.86-.8-1.9-.8-3.13v-31.65h-34.41s-5.36-.69-5.36-6.65,5.36-6.97,5.36-6.97h34.41v-28.13c0-1.3.33-2.44,1-3.41,1.26-1.9,3.23-2.85,5.92-2.85M369.56,18.59c-6.03,0-11.07,2.58-14.21,7.26-1.77,2.61-2.7,5.72-2.7,9v18.13h-25.34l-.91.17c-6.51,1.22-13.52,6.99-13.52,16.8s7.09,15.67,14.09,16.57l.63.08h25.05v21.65c0,3.05.74,5.83,2.21,8.26,3.02,5.12,8.37,8.05,14.7,8.05,5.29,0,9.95-2.06,13.13-5.8,2.48-2.89,3.78-6.53,3.78-10.51V34.84c0-4.06-1.37-7.75-3.97-10.67-2.28-2.55-6.36-5.59-12.94-5.59h0Z"/>
        </g>
        <g>
          <path class="i" d="M416.25,77.93l-24.77-36.56c-1.06-1.6-1.59-3.26-1.59-4.97,0-2.16.83-4.04,2.49-5.64,1.49-1.41,3.2-2.12,5.12-2.12,2.35,0,4.26,1.12,5.72,3.35l19.99,30.87,33.66-44.59c1.49-2.27,3.43-3.41,5.82-3.41,1.49,0,2.88.5,4.18,1.51,2.22,1.68,3.33,3.82,3.33,6.42,0,1.64-.53,3.26-1.59,4.86l-38.48,50.28v30.2c0,1.79-.55,3.24-1.64,4.35-1.39,1.38-3.17,2.07-5.32,2.07-2.85,0-4.89-1.08-6.12-3.24-.53-.89-.8-1.95-.8-3.18v-30.2Z"/>
          <path class="i" d="M462.69,14.87c1.49,0,2.88.5,4.18,1.51,2.22,1.68,3.33,3.82,3.33,6.42,0,1.64-.53,3.26-1.59,4.86l-38.48,50.28v30.2c0,1.79-.55,3.24-1.64,4.35-1.39,1.38-3.17,2.07-5.32,2.07-2.85,0-4.89-1.08-6.12-3.24-.53-.89-.8-1.95-.8-3.18v-30.2l-24.77-36.56c-1.06-1.6-1.59-3.26-1.59-4.97,0-2.16.83-4.04,2.49-5.64,1.49-1.41,3.2-2.12,5.12-2.12,2.35,0,4.26,1.12,5.72,3.35l19.99,30.87,33.66-44.59c1.49-2.27,3.43-3.41,5.82-3.41M462.69,4.87c-5.67,0-10.61,2.7-13.96,7.6l-24.89,32.97-12.22-18.88c-3.34-5.12-8.35-7.91-14.11-7.91-4.5,0-8.65,1.68-12,4.87l-.03.03-.03.03c-3.63,3.5-5.54,7.94-5.54,12.83,0,3.71,1.1,7.24,3.26,10.5l.03.04.03.04,23.04,34.02v27.13c0,3.01.72,5.77,2.15,8.2,3,5.22,8.38,8.22,14.77,8.22,4.8,0,9.08-1.71,12.35-4.96l.05-.05.05-.05c2.94-3,4.5-6.93,4.5-11.35v-26.81l36.43-47.59.21-.27.19-.28c2.16-3.26,3.26-6.75,3.26-10.38,0-5.71-2.58-10.81-7.26-14.36-3.03-2.33-6.57-3.57-10.25-3.57h0Z"/>
        </g>
      </g>
      <g>
        <path class="j" d="M58.12,22.78c6.88,1.41,12.68,4.42,17.41,9.03,4.48,4.39,6.34,8.47,5.56,12.23-.39,1.88-1.35,3.4-2.9,4.55-1.76,1.31-3.64,1.76-5.63,1.35-1.78-.37-3.41-1.74-4.88-4.13-3.19-5.19-7.33-8.31-12.43-9.35-4.05-.83-7.49-.72-10.33.33-3.27,1.21-5.26,3.55-5.98,7.04-.64,3.1.14,5.95,2.33,8.57,1.63,1.97,5.88,4.94,12.74,8.93,8.91,5.14,14.79,9.63,17.64,13.49,4.23,5.77,5.6,12.34,4.08,19.71-1.77,8.62-6.23,14.73-13.37,18.32-6.44,3.21-14.1,3.9-22.97,2.08-8.38-1.72-15.29-5.51-20.75-11.37-5.15-5.55-7.31-10.36-6.48-14.44.35-1.68,1.14-3.09,2.4-4.22,1.76-1.64,3.68-2.25,5.78-1.82,1.5.31,2.77,1.12,3.81,2.44.31.43.9,1.39,1.76,2.87,4.08,6.88,9.54,11.03,16.38,12.43,4.57.94,8.47.74,11.69-.6,3.49-1.41,5.62-3.97,6.38-7.69s-.2-7.19-2.93-10.16c-1.85-1.97-6.29-5.07-13.32-9.29-7.45-4.47-12.78-8.61-16-12.41-4.06-4.84-5.31-11.1-3.73-18.78,1.28-6.23,4.35-11.17,9.21-14.83,6.46-4.88,14.63-6.3,24.51-4.27Z"/>
        <path class="j" d="M103.62,84.24v24c0,1.27-.28,2.36-.85,3.29-1.23,2.01-3.22,3.02-5.97,3.02-2.36,0-4.23-.74-5.62-2.23-.96-1.08-1.44-2.44-1.44-4.08V34.84c0-1.3.33-2.44.99-3.41,1.29-1.9,3.28-2.85,5.97-2.85,2.32,0,4.14.75,5.47,2.23.96,1.08,1.44,2.42,1.44,4.02v30.87l48.08-51.2c1.49-1.67,3.25-2.51,5.27-2.51,1.66,0,3.12.58,4.38,1.73,1.59,1.41,2.39,3.29,2.39,5.64,0,1.94-.66,3.59-1.99,4.97l-39.88,40.93,28.39,36.73c1.26,1.6,1.89,3.35,1.89,5.25,0,2.31-.91,4.19-2.74,5.64-1.43,1.15-2.97,1.73-4.62,1.73-2.32,0-4.29-1.13-5.92-3.41l-26.61-36.34-8.65,9.38Z"/>
        <path class="j" d="M178.17,75.74v17.19c0,1.38.61,2.07,1.84,2.07h46.29c1.36,0,2.49.54,3.38,1.62,1.06,1.3,1.59,3.01,1.59,5.14,0,2.9-.88,4.93-2.64,6.08-.7.45-1.48.67-2.34.67h-52.21c-6.6,0-9.9-3.7-9.9-11.11v-56.46c0-7.4,3.3-11.11,9.9-11.11h39.93c1.19,0,2.24.45,3.13,1.34,1.23,1.3,1.84,3.07,1.84,5.3,0,2.76-.88,4.71-2.64,5.86-.66.45-1.44.67-2.34.67h-34.02c-1.23,0-1.84.73-1.84,2.18v17.56h24.32c1.13,0,2.09.41,2.88,1.23,1.19,1.23,1.79,3.01,1.79,5.36,0,2.64-.8,4.54-2.39,5.69-.63.48-1.39.73-2.29.73h-24.32Z"/>
        <path class="j" d="M252.31,43.66h-21.38c-.96,0-1.79-.24-2.49-.73-1.72-1.19-2.59-3.24-2.59-6.14,0-2.42.65-4.3,1.94-5.64.83-.89,1.87-1.34,3.13-1.34h56.84c1.06,0,1.99.32,2.78.95,1.52,1.3,2.29,3.29,2.29,5.97s-.68,4.48-2.04,5.75c-.83.78-1.84,1.17-3.03,1.17h-21.38v76.29c0,1.9-.6,3.42-1.79,4.58-1.33,1.3-3.08,1.95-5.27,1.95-2.95,0-5.02-1.08-6.22-3.24-.53-.93-.8-2.03-.8-3.29V43.66Z"/>
        <path class="j" d="M330.09,115.22c-11.47,0-20.61-4.45-27.4-13.34-5.94-7.74-8.9-17.82-8.9-30.25,0-13.47,3.51-24.3,10.54-32.49,6.43-7.52,14.87-11.27,25.31-11.27,0,0,5.87-.75,7.54,5.09,2.39,8.35-7.29,8.19-7.29,8.19-5.14,0-9.56,1.95-13.28,5.86-5.3,5.55-7.96,13.73-7.96,24.56,0,7.81,1.57,14.42,4.72,19.82,3.95,6.74,9.5,10.1,16.66,10.1,0,0,9.53-1.81,9.53,6.63,0,7.16-9.48,7.11-9.48,7.11Z"/>
        <path class="j" d="M328.23,62.97h34.41v-28.13c0-1.3.33-2.44,1-3.41,1.26-1.9,3.23-2.85,5.92-2.85,2.32,0,4.14.75,5.47,2.23.96,1.08,1.44,2.42,1.44,4.02v73.4c0,1.6-.46,2.94-1.39,4.02-1.29,1.53-3.13,2.29-5.52,2.29-2.85,0-4.89-1.06-6.12-3.18-.53-.86-.8-1.9-.8-3.13v-31.65h-34.41s-5.36-.69-5.36-6.65,5.36-6.97,5.36-6.97Z"/>
        <path class="j" d="M416.25,77.93l-24.77-36.56c-1.06-1.6-1.59-3.26-1.59-4.97,0-2.16.83-4.04,2.49-5.64,1.49-1.41,3.2-2.12,5.12-2.12,2.35,0,4.26,1.12,5.72,3.35l19.99,30.87,33.66-44.59c1.49-2.27,3.43-3.41,5.82-3.41,1.49,0,2.88.5,4.18,1.51,2.22,1.68,3.33,3.82,3.33,6.42,0,1.64-.53,3.26-1.59,4.86l-38.48,50.28v30.2c0,1.79-.55,3.24-1.64,4.35-1.39,1.38-3.17,2.07-5.32,2.07-2.85,0-4.89-1.08-6.12-3.24-.53-.89-.8-1.95-.8-3.18v-30.2Z"/>
      </g>
      <g>
        <path class="g" d="M47.47,19.5c2.61,0,5.36.3,8.26.89,6.88,1.41,12.68,4.42,17.41,9.03,4.48,4.39,6.34,8.47,5.56,12.23-.39,1.88-1.35,3.4-2.9,4.55-1.34,1-2.75,1.5-4.23,1.5-.46,0-.93-.05-1.4-.15-1.78-.37-3.41-1.74-4.88-4.13-3.19-5.19-7.33-8.31-12.43-9.35-1.79-.37-3.46-.55-5.01-.55-1.96,0-3.73.29-5.32.88-3.27,1.21-5.26,3.55-5.98,7.04-.64,3.1.14,5.95,2.33,8.57,1.63,1.97,5.88,4.94,12.74,8.93,8.91,5.14,14.79,9.63,17.64,13.49,4.23,5.77,5.6,12.34,4.08,19.71-1.77,8.62-6.23,14.73-13.37,18.32-4.11,2.05-8.71,3.07-13.81,3.07-2.89,0-5.95-.33-9.16-.99-8.38-1.72-15.29-5.51-20.75-11.37-5.15-5.55-7.31-10.36-6.48-14.44.35-1.68,1.14-3.09,2.4-4.22,1.39-1.3,2.89-1.95,4.49-1.95.42,0,.85.04,1.28.13,1.5.31,2.77,1.12,3.81,2.44.31.43.9,1.39,1.76,2.87,4.08,6.88,9.54,11.03,16.38,12.43,1.89.39,3.66.58,5.31.58,2.36,0,4.49-.39,6.38-1.18,3.49-1.41,5.62-3.97,6.38-7.69.78-3.8-.2-7.19-2.93-10.16-1.85-1.97-6.29-5.07-13.32-9.29-7.45-4.47-12.78-8.61-16-12.41-4.06-4.84-5.31-11.1-3.73-18.78,1.28-6.23,4.35-11.17,9.21-14.83,4.56-3.45,9.98-5.17,16.24-5.17M47.47,18.5h0c-6.46,0-12.13,1.81-16.85,5.37-5.04,3.79-8.27,8.98-9.59,15.43-1.63,7.96-.31,14.56,3.94,19.62,3.28,3.87,8.74,8.12,16.26,12.63,6.91,4.15,11.32,7.22,13.1,9.12,2.52,2.74,3.4,5.77,2.68,9.27-.7,3.4-2.59,5.68-5.78,6.97-1.77.74-3.79,1.11-6.01,1.11-1.58,0-3.3-.19-5.11-.56-6.52-1.34-11.81-5.36-15.72-11.96-.88-1.52-1.47-2.49-1.8-2.95-1.21-1.54-2.69-2.48-4.42-2.83-.5-.1-1-.15-1.48-.15-1.86,0-3.6.75-5.17,2.22-1.39,1.26-2.3,2.86-2.69,4.75-.9,4.39,1.36,9.55,6.72,15.32,5.57,5.99,12.73,9.91,21.28,11.67,3.26.67,6.41,1.01,9.36,1.01,5.23,0,10.02-1.07,14.25-3.18,7.4-3.72,12.08-10.12,13.9-19.02,1.57-7.62.13-14.52-4.26-20.5-2.96-4-8.83-8.5-17.95-13.76-6.72-3.9-10.92-6.83-12.47-8.7-2.01-2.39-2.7-4.92-2.12-7.73.65-3.15,2.4-5.22,5.34-6.3,1.47-.54,3.14-.82,4.97-.82,1.48,0,3.09.18,4.81.53,4.79.98,8.75,3.98,11.78,8.9,1.62,2.62,3.48,4.16,5.53,4.58.54.11,1.08.17,1.6.17,1.69,0,3.31-.57,4.82-1.7,1.74-1.3,2.85-3.03,3.28-5.15.84-4.1-1.12-8.52-5.84-13.15-4.85-4.72-10.87-7.85-17.91-9.29-2.95-.61-5.8-.91-8.46-.91h0Z"/>
        <path class="g" d="M154.59,9.61c1.66,0,3.12.58,4.38,1.73,1.59,1.41,2.39,3.29,2.39,5.64,0,1.94-.66,3.59-1.99,4.97l-39.88,40.93,28.39,36.73c1.26,1.6,1.89,3.35,1.89,5.25,0,2.31-.91,4.19-2.74,5.64-1.43,1.15-2.97,1.73-4.62,1.73-2.32,0-4.29-1.13-5.92-3.41l-26.61-36.34-8.65,9.38v24c0,1.27-.28,2.36-.85,3.29-1.23,2.01-3.22,3.02-5.97,3.02-2.36,0-4.23-.74-5.62-2.23-.96-1.08-1.44-2.44-1.44-4.08V32.46c0-1.3.33-2.44.99-3.41,1.29-1.9,3.28-2.85,5.97-2.85,2.32,0,4.14.75,5.47,2.23.96,1.08,1.44,2.42,1.44,4.02v30.87l48.08-51.2c1.49-1.67,3.25-2.51,5.27-2.51M154.59,8.61c-2.31,0-4.34.96-6.02,2.85l-46.33,49.34v-28.34c0-1.84-.57-3.42-1.7-4.68-1.52-1.7-3.61-2.57-6.22-2.57-3.02,0-5.31,1.1-6.79,3.28-.77,1.13-1.17,2.46-1.17,3.97v73.4c0,1.88.57,3.48,1.69,4.74,1.6,1.71,3.74,2.57,6.37,2.57,3.11,0,5.4-1.18,6.82-3.49.66-1.09.99-2.37.99-3.81v-23.61l7.56-8.2,25.89,35.36c1.81,2.53,4.07,3.81,6.72,3.81,1.88,0,3.65-.66,5.25-1.95,2.06-1.64,3.11-3.8,3.11-6.41,0-2.12-.71-4.09-2.11-5.87l-27.86-36.03,39.27-40.31c1.51-1.57,2.27-3.47,2.27-5.67,0-2.63-.92-4.78-2.72-6.39-1.43-1.31-3.13-1.98-5.04-1.98h0Z"/>
        <path class="g" d="M211.64,27.43c1.19,0,2.24.45,3.13,1.34,1.23,1.3,1.84,3.07,1.84,5.3,0,2.76-.88,4.71-2.64,5.86-.66.45-1.44.67-2.34.67h-34.02c-1.23,0-1.84.73-1.84,2.18v17.56h24.32c1.13,0,2.09.41,2.88,1.23,1.19,1.23,1.79,3.01,1.79,5.36,0,2.64-.8,4.54-2.39,5.69-.63.48-1.39.73-2.29.73h-24.32v17.19c0,1.38.61,2.07,1.84,2.07h46.29c1.36,0,2.49.54,3.38,1.62,1.06,1.3,1.59,3.01,1.59,5.14,0,2.9-.88,4.93-2.64,6.08-.7.45-1.48.67-2.34.67h-52.21c-6.6,0-9.9-3.7-9.9-11.11v-56.46c0-7.4,3.3-11.11,9.9-11.11h39.93M211.64,26.43h-39.93c-4.97,0-10.9,2.1-10.9,12.11v56.46c0,10.01,5.93,12.11,10.9,12.11h52.21c1.05,0,2.02-.28,2.88-.83,2.06-1.35,3.1-3.68,3.1-6.93,0-2.35-.61-4.29-1.82-5.77-1.1-1.32-2.49-1.99-4.16-1.99h-46.29c-.43,0-.84,0-.84-1.07v-16.19h23.32c1.12,0,2.09-.31,2.9-.93,1.84-1.33,2.78-3.52,2.78-6.49,0-2.6-.7-4.64-2.07-6.06-.99-1.02-2.2-1.53-3.6-1.53h-23.32v-16.56c0-1.18.43-1.18.84-1.18h34.02c1.09,0,2.07-.28,2.9-.84,2.04-1.34,3.08-3.59,3.08-6.69,0-2.48-.71-4.5-2.11-5.99-1.11-1.1-2.4-1.65-3.86-1.65h0Z"/>
        <path class="g" d="M285.39,27.43c1.06,0,1.99.32,2.78.95,1.52,1.3,2.29,3.29,2.29,5.97s-.68,4.48-2.04,5.75c-.83.78-1.84,1.17-3.03,1.17h-21.38v76.29c0,1.9-.6,3.42-1.79,4.58-1.33,1.3-3.08,1.95-5.27,1.95-2.95,0-5.02-1.08-6.22-3.24-.53-.93-.8-2.03-.8-3.29V41.28h-21.38c-.96,0-1.79-.24-2.49-.73-1.73-1.19-2.59-3.24-2.59-6.14,0-2.42.65-4.3,1.94-5.64.83-.89,1.87-1.34,3.13-1.34h56.84M285.39,26.43h-56.84c-1.54,0-2.84.56-3.87,1.66-1.46,1.51-2.21,3.64-2.21,6.32,0,3.24,1.02,5.58,3.02,6.96.86.6,1.89.9,3.05.9h20.38v75.29c0,1.44.31,2.71.93,3.79,1.37,2.48,3.76,3.74,7.08,3.74,2.45,0,4.46-.75,5.97-2.24,1.38-1.34,2.09-3.12,2.09-5.29V42.28h20.38c1.45,0,2.7-.49,3.72-1.44,1.56-1.45,2.35-3.63,2.35-6.48s-.89-5.24-2.64-6.73c-1-.8-2.15-1.19-3.43-1.19h0Z"/>
        <path class="g" d="M327.91,25.45c1.58,0,5.56.48,6.89,5.13,2.3,8.04-6.59,8.19-7.25,8.19-.03,0-.04,0-.04,0-5.14,0-9.56,1.95-13.28,5.86-5.3,5.55-7.96,13.73-7.96,24.56,0,7.81,1.57,14.42,4.72,19.82,3.95,6.74,9.5,10.1,16.66,10.1,0,0,.86-.16,2.06-.16,2.8,0,7.47.89,7.47,6.79,0,7.06-9.21,7.11-9.47,7.11h0c-11.47,0-20.61-4.45-27.4-13.34-5.94-7.74-8.9-17.82-8.9-30.25,0-13.47,3.51-24.3,10.54-32.49,6.43-7.52,14.87-11.27,25.31-11.27,0,0,.25-.03.65-.03M327.91,24.45c-.34,0-.59.02-.71.03-10.68.01-19.43,3.92-26.02,11.62-7.15,8.33-10.78,19.48-10.78,33.14,0,12.6,3.06,22.98,9.11,30.86,6.96,9.11,16.45,13.73,28.19,13.73.43,0,10.48-.09,10.48-8.11,0-4.95-3.09-7.79-8.47-7.79-1.05,0-1.87.12-2.15.16-6.8-.03-11.94-3.17-15.71-9.61-3.04-5.21-4.59-11.71-4.59-19.31,0-10.51,2.58-18.54,7.68-23.87,3.55-3.74,7.66-5.55,12.56-5.55h0c.91,0,5.31-.15,7.5-3.05,1.24-1.65,1.49-3.8.75-6.41-1.55-5.43-6.4-5.85-7.85-5.85h0Z"/>
        <path class="g" d="M367.17,26.2c2.32,0,4.14.75,5.47,2.23.96,1.08,1.44,2.42,1.44,4.02v73.4c0,1.6-.46,2.94-1.39,4.02-1.29,1.53-3.13,2.29-5.52,2.29-2.85,0-4.89-1.06-6.12-3.18-.53-.86-.8-1.9-.8-3.13v-31.65h-34.41s-5.36-.69-5.36-6.65,5.36-6.97,5.36-6.97h34.41v-28.13c0-1.3.33-2.44,1-3.41,1.26-1.9,3.23-2.85,5.92-2.85M367.17,25.2c-3.03,0-5.3,1.11-6.75,3.29-.77,1.12-1.16,2.46-1.16,3.96v27.13h-33.51l-.09.02c-2.14.4-6.18,2.57-6.18,7.95s4.08,7.37,6.23,7.65h.06s.06,0,.06,0h33.41v30.65c0,1.41.32,2.64.95,3.65,1.4,2.42,3.75,3.66,6.97,3.66,2.68,0,4.8-.89,6.28-2.64,1.08-1.25,1.63-2.83,1.63-4.67V32.46c0-1.84-.57-3.42-1.69-4.68-1.52-1.7-3.61-2.57-6.22-2.57h0Z"/>
        <path class="g" d="M460.31,12.48c1.49,0,2.88.5,4.18,1.51,2.22,1.68,3.33,3.82,3.33,6.42,0,1.64-.53,3.26-1.59,4.86l-38.48,50.28v30.2c0,1.79-.55,3.24-1.64,4.35-1.39,1.38-3.17,2.07-5.32,2.07-2.85,0-4.89-1.08-6.12-3.24-.53-.89-.8-1.95-.8-3.18v-30.2l-24.77-36.56c-1.06-1.6-1.59-3.26-1.59-4.97,0-2.16.83-4.04,2.49-5.64,1.49-1.41,3.2-2.12,5.12-2.12,2.35,0,4.26,1.12,5.72,3.35l19.99,30.87,33.66-44.59c1.49-2.27,3.43-3.41,5.82-3.41M460.31,11.48c-2.72,0-4.96,1.29-6.64,3.83l-32.78,43.42-19.21-29.67c-1.65-2.53-3.86-3.81-6.56-3.81-2.18,0-4.13.81-5.81,2.4-1.86,1.79-2.8,3.93-2.8,6.36,0,1.91.59,3.76,1.76,5.52l24.6,36.32v29.89c0,1.4.31,2.65.94,3.69,1.4,2.47,3.75,3.73,6.98,3.73,2.42,0,4.45-.79,6.02-2.35,1.29-1.32,1.94-3.02,1.94-5.06v-29.86l38.28-50.01.02-.03.02-.03c1.17-1.76,1.76-3.58,1.76-5.41,0-2.92-1.26-5.35-3.73-7.22-1.46-1.13-3.07-1.71-4.78-1.71h0Z"/>
      </g>
    </g>
  </g>
</svg>